<svg width="48" height="48" viewBox="0 0 48 48" fill="none" xmlns="http://www.w3.org/2000/svg">
<path d="M31.632 27.1416C29.9088 27.1416 28.512 29.0784 28.512 31.4592C28.512 33.8448 29.9088 35.7816 31.632 35.7816C33.3552 35.7816 34.752 33.8448 34.752 31.4592C34.7496 29.0784 33.3552 27.1416 31.632 27.1416ZM42.4944 15.9024C42.852 15.0264 42.8664 10.0488 40.9704 5.28003C40.9704 5.28003 36.624 5.75763 30.048 10.272C28.668 9.88803 26.3328 9.70083 24.0024 9.70083C21.6672 9.70083 19.3344 9.88803 17.9544 10.272C11.376 5.75763 7.02961 5.28003 7.02961 5.28003C5.13601 10.0488 5.15521 15.0264 5.50801 15.9024C3.28081 18.3216 1.92001 21.228 1.92001 25.1928C1.92001 42.4392 16.2312 42.7152 19.8408 42.7152L24.0024 42.72L28.1592 42.7152C31.7736 42.7152 46.08 42.4392 46.08 25.1928C46.08 21.228 44.7216 18.3216 42.4944 15.9024ZM24.0672 40.596H23.9328C14.8824 40.596 7.83121 39.5184 7.83121 30.72C7.83121 28.6104 8.57521 26.6568 10.344 25.0344C13.2888 22.3296 18.276 23.76 23.9328 23.76H24.0672C29.724 23.76 34.7136 22.3296 37.6608 25.0344C39.4248 26.6568 40.1688 28.6104 40.1688 30.72C40.1688 39.5184 33.12 40.596 24.0672 40.596ZM16.3704 27.1416C14.6472 27.1416 13.2504 29.0784 13.2504 31.4592C13.2504 33.8448 14.6472 35.7816 16.3704 35.7816C18.096 35.7816 19.4928 33.8448 19.4928 31.4592C19.4928 29.0784 18.096 27.1416 16.3704 27.1416Z" fill="black"/>
</svg>
