<svg width="48" height="48" viewBox="0 0 48 48" fill="none" xmlns="http://www.w3.org/2000/svg">
<g clip-path="url(#clip0_5_44)">
<path d="M24.1723 12.2554H22.7017V19.7576H24.1723V12.2554Z" fill="black"/>
<path d="M24.1726 7.04333V5.5033H22.702V7.04333C16.8465 7.42348 12.1987 12.3073 12.1987 18.2572V31.7615C12.1988 37.9584 17.2404 43 23.4373 43C29.6343 43 34.6759 37.9584 34.6759 31.7615V18.2572C34.6759 12.3074 30.028 7.42339 24.1726 7.04333ZM33.2052 31.7615C33.2052 37.1475 28.8235 41.5294 23.4373 41.5294C18.0512 41.5294 13.6694 37.1475 13.6694 31.7615V18.2572C13.6694 12.8712 18.0512 8.48933 23.4373 8.48933C28.8235 8.48933 33.2052 12.8712 33.2052 18.2572V31.7615Z" fill="black"/>
<path d="M25.688 3.23762V1.76697C24.0414 1.76697 22.702 3.10656 22.702 4.75291H24.1727C24.1726 3.91741 24.8525 3.23762 25.688 3.23762Z" fill="black"/>
<path d="M44.4438 -3.48453H3.18094C2.34535 -3.48453 1.66557 -4.16431 1.66557 -5H0.195007C0.195007 -3.35347 1.53441 -2.01406 3.18094 -2.01406H44.4438C45.4863 -2.01406 46.3344 -1.166 46.3344 -0.123593C46.3344 0.918813 45.4863 1.76697 44.4438 1.76697H26.4383V3.23763H44.4438C46.297 3.23763 47.805 1.72984 47.805 -0.123593C47.805 -1.97684 46.2971 -3.48453 44.4438 -3.48453Z" fill="black"/>
</g>
<defs>
<clipPath id="clip0_5_44">
<rect width="48" height="48" fill="white"/>
</clipPath>
</defs>
</svg>
